<mxfile host="app.diagrams.net" agent="Mozilla/5.0 (Macintosh; Intel Mac OS X 10_15_7) AppleWebKit/537.36 (KHTML, like Gecko) Chrome/137.0.0.0 Safari/537.36" version="27.2.0">
  <diagram name="爱梦迁移" id="MDBqZbmOj7PMZJ1YNxe0">
    <mxGraphModel dx="1018" dy="609" grid="1" gridSize="10" guides="1" tooltips="1" connect="1" arrows="1" fold="1" page="1" pageScale="1" pageWidth="827" pageHeight="1169" math="0" shadow="0">
      <root>
        <mxCell id="0" />
        <mxCell id="1" parent="0" />
        <mxCell id="EzR5W462PUSstDqZwvUE-5" style="edgeStyle=orthogonalEdgeStyle;rounded=0;orthogonalLoop=1;jettySize=auto;html=1;exitX=0.25;exitY=0;exitDx=0;exitDy=0;entryX=0.25;entryY=1;entryDx=0;entryDy=0;" parent="1" source="EzR5W462PUSstDqZwvUE-1" target="EzR5W462PUSstDqZwvUE-3" edge="1">
          <mxGeometry relative="1" as="geometry" />
        </mxCell>
        <mxCell id="EzR5W462PUSstDqZwvUE-6" value="1. RegisterDevice" style="edgeLabel;html=1;align=center;verticalAlign=middle;resizable=0;points=[];" parent="EzR5W462PUSstDqZwvUE-5" vertex="1" connectable="0">
          <mxGeometry x="0.04" y="-3" relative="1" as="geometry">
            <mxPoint as="offset" />
          </mxGeometry>
        </mxCell>
        <mxCell id="EzR5W462PUSstDqZwvUE-9" style="edgeStyle=orthogonalEdgeStyle;rounded=0;orthogonalLoop=1;jettySize=auto;html=1;exitX=1;exitY=0.5;exitDx=0;exitDy=0;entryX=0;entryY=0.5;entryDx=0;entryDy=0;" parent="1" source="EzR5W462PUSstDqZwvUE-1" target="EzR5W462PUSstDqZwvUE-2" edge="1">
          <mxGeometry relative="1" as="geometry" />
        </mxCell>
        <mxCell id="EzR5W462PUSstDqZwvUE-10" value="&amp;nbsp;4. 三元组" style="edgeLabel;html=1;align=center;verticalAlign=middle;resizable=0;points=[];" parent="EzR5W462PUSstDqZwvUE-9" vertex="1" connectable="0">
          <mxGeometry x="-0.1" relative="1" as="geometry">
            <mxPoint as="offset" />
          </mxGeometry>
        </mxCell>
        <mxCell id="EzR5W462PUSstDqZwvUE-13" style="edgeStyle=orthogonalEdgeStyle;rounded=0;orthogonalLoop=1;jettySize=auto;html=1;exitX=0.5;exitY=1;exitDx=0;exitDy=0;" parent="1" source="EzR5W462PUSstDqZwvUE-1" target="EzR5W462PUSstDqZwvUE-4" edge="1">
          <mxGeometry relative="1" as="geometry" />
        </mxCell>
        <mxCell id="EzR5W462PUSstDqZwvUE-14" value="&lt;span style=&quot;background-color: rgb(255, 255, 102);&quot;&gt;3. ImportDevice（三元组）&lt;/span&gt;" style="edgeLabel;html=1;align=center;verticalAlign=middle;resizable=0;points=[];" parent="EzR5W462PUSstDqZwvUE-13" vertex="1" connectable="0">
          <mxGeometry x="-0.04" y="1" relative="1" as="geometry">
            <mxPoint as="offset" />
          </mxGeometry>
        </mxCell>
        <mxCell id="EzR5W462PUSstDqZwvUE-1" value="App" style="rounded=0;whiteSpace=wrap;html=1;" parent="1" vertex="1">
          <mxGeometry x="210" y="170" width="180" height="60" as="geometry" />
        </mxCell>
        <mxCell id="EzR5W462PUSstDqZwvUE-11" style="edgeStyle=orthogonalEdgeStyle;rounded=0;orthogonalLoop=1;jettySize=auto;html=1;exitX=0.25;exitY=0;exitDx=0;exitDy=0;entryX=1;entryY=0.75;entryDx=0;entryDy=0;" parent="1" source="EzR5W462PUSstDqZwvUE-2" target="EzR5W462PUSstDqZwvUE-3" edge="1">
          <mxGeometry relative="1" as="geometry" />
        </mxCell>
        <mxCell id="EzR5W462PUSstDqZwvUE-12" value="5. connect" style="edgeLabel;html=1;align=center;verticalAlign=middle;resizable=0;points=[];" parent="EzR5W462PUSstDqZwvUE-11" vertex="1" connectable="0">
          <mxGeometry x="0.1308" y="-3" relative="1" as="geometry">
            <mxPoint as="offset" />
          </mxGeometry>
        </mxCell>
        <mxCell id="EzR5W462PUSstDqZwvUE-2" value="Device&lt;div&gt;（Endpoint、证书）&lt;/div&gt;" style="rounded=0;whiteSpace=wrap;html=1;" parent="1" vertex="1">
          <mxGeometry x="510" y="170" width="120" height="60" as="geometry" />
        </mxCell>
        <mxCell id="EzR5W462PUSstDqZwvUE-7" style="edgeStyle=orthogonalEdgeStyle;rounded=0;orthogonalLoop=1;jettySize=auto;html=1;exitX=0.75;exitY=1;exitDx=0;exitDy=0;entryX=0.75;entryY=0;entryDx=0;entryDy=0;" parent="1" source="EzR5W462PUSstDqZwvUE-3" target="EzR5W462PUSstDqZwvUE-1" edge="1">
          <mxGeometry relative="1" as="geometry" />
        </mxCell>
        <mxCell id="EzR5W462PUSstDqZwvUE-8" value="2. 三元组" style="edgeLabel;html=1;align=center;verticalAlign=middle;resizable=0;points=[];" parent="EzR5W462PUSstDqZwvUE-7" vertex="1" connectable="0">
          <mxGeometry y="1" relative="1" as="geometry">
            <mxPoint as="offset" />
          </mxGeometry>
        </mxCell>
        <mxCell id="EzR5W462PUSstDqZwvUE-15" style="edgeStyle=orthogonalEdgeStyle;rounded=0;orthogonalLoop=1;jettySize=auto;html=1;exitX=1;exitY=0.25;exitDx=0;exitDy=0;entryX=0.75;entryY=0;entryDx=0;entryDy=0;" parent="1" source="EzR5W462PUSstDqZwvUE-3" target="EzR5W462PUSstDqZwvUE-2" edge="1">
          <mxGeometry relative="1" as="geometry" />
        </mxCell>
        <mxCell id="EzR5W462PUSstDqZwvUE-16" value="6. ota，更新 Endpoint、证书" style="edgeLabel;html=1;align=center;verticalAlign=middle;resizable=0;points=[];" parent="EzR5W462PUSstDqZwvUE-15" vertex="1" connectable="0">
          <mxGeometry x="0.0033" y="-3" relative="1" as="geometry">
            <mxPoint as="offset" />
          </mxGeometry>
        </mxCell>
        <mxCell id="EzR5W462PUSstDqZwvUE-3" value="原阿里云 IoT" style="rounded=0;whiteSpace=wrap;html=1;" parent="1" vertex="1">
          <mxGeometry x="210" y="60" width="180" height="60" as="geometry" />
        </mxCell>
        <mxCell id="EzR5W462PUSstDqZwvUE-4" value="Tuya IoT on Alibaba Cloud" style="rounded=0;whiteSpace=wrap;html=1;" parent="1" vertex="1">
          <mxGeometry x="210" y="280" width="180" height="60" as="geometry" />
        </mxCell>
      </root>
    </mxGraphModel>
  </diagram>
</mxfile>
